<svg width="58" height="58" viewBox="0 0 58 58" fill="none" xmlns="http://www.w3.org/2000/svg">
<g filter="url(#filter0_d_823_77)">
<rect x="4" y="4" width="50" height="50" rx="10" fill="white"/>
</g>
<path d="M12.9286 33.0713C13.2128 33.0713 13.4853 33.1842 13.6862 33.3851C13.8872 33.586 14 33.8586 14 34.1427V39.4999C14 40.0682 14.2258 40.6132 14.6277 41.0151C15.0295 41.417 15.5746 41.6427 16.1429 41.6427H41.8572C42.4255 41.6427 42.9705 41.417 43.3724 41.0151C43.7743 40.6132 44 40.0682 44 39.4999V34.1427C44 33.8586 44.1129 33.586 44.3138 33.3851C44.5148 33.1842 44.7873 33.0713 45.0715 33.0713C45.3556 33.0713 45.6281 33.1842 45.8291 33.3851C46.03 33.586 46.1429 33.8586 46.1429 34.1427V39.4999C46.1429 40.6365 45.6914 41.7266 44.8876 42.5303C44.0839 43.334 42.9938 43.7856 41.8572 43.7856H16.1429C15.0062 43.7856 13.9162 43.334 13.1124 42.5303C12.3087 41.7266 11.8572 40.6365 11.8572 39.4999V34.1427C11.8572 33.8586 11.9701 33.586 12.171 33.3851C12.3719 33.1842 12.6444 33.0713 12.9286 33.0713Z" fill="#003957"/>
<path d="M28.2413 37.2586C28.3408 37.3583 28.4591 37.4375 28.5892 37.4915C28.7194 37.5455 28.859 37.5733 28.9999 37.5733C29.1408 37.5733 29.2804 37.5455 29.4105 37.4915C29.5407 37.4375 29.6589 37.3583 29.7585 37.2586L36.187 30.83C36.3882 30.6288 36.5012 30.3559 36.5012 30.0714C36.5012 29.7869 36.3882 29.514 36.187 29.3129C35.9858 29.1117 35.713 28.9986 35.4285 28.9986C35.1439 28.9986 34.8711 29.1117 34.6699 29.3129L30.0713 33.9136V15.0714C30.0713 14.7873 29.9584 14.5147 29.7575 14.3138C29.5566 14.1129 29.284 14 28.9999 14C28.7157 14 28.4432 14.1129 28.2423 14.3138C28.0413 14.5147 27.9285 14.7873 27.9285 15.0714V33.9136L23.3299 29.3129C23.1287 29.1117 22.8558 28.9986 22.5713 28.9986C22.2868 28.9986 22.0139 29.1117 21.8127 29.3129C21.6116 29.514 21.4985 29.7869 21.4985 30.0714C21.4985 30.3559 21.6116 30.6288 21.8127 30.83L28.2413 37.2586Z" fill="#003957"/>
<defs>
<filter id="filter0_d_823_77" x="0" y="0" width="58" height="58" filterUnits="userSpaceOnUse" color-interpolation-filters="sRGB">
<feFlood flood-opacity="0" result="BackgroundImageFix"/>
<feColorMatrix in="SourceAlpha" type="matrix" values="0 0 0 0 0 0 0 0 0 0 0 0 0 0 0 0 0 0 127 0" result="hardAlpha"/>
<feOffset/>
<feGaussianBlur stdDeviation="2"/>
<feComposite in2="hardAlpha" operator="out"/>
<feColorMatrix type="matrix" values="0 0 0 0 0 0 0 0 0 0 0 0 0 0 0 0 0 0 0.25 0"/>
<feBlend mode="normal" in2="BackgroundImageFix" result="effect1_dropShadow_823_77"/>
<feBlend mode="normal" in="SourceGraphic" in2="effect1_dropShadow_823_77" result="shape"/>
</filter>
</defs>
</svg>
