<svg width="100" height="100" viewBox="0 0 100 100" fill="none" xmlns="http://www.w3.org/2000/svg">
<circle cx="50" cy="50" r="50" fill="url(#paint0_radial_471_1019)"/>
<path d="M38.9166 45.7048H37.3109C35.1196 45.6256 32.9354 45.9976 30.8938 46.7977C28.8523 47.5978 26.9969 48.8089 25.443 50.356L25 50.8728V66.1552H32.5305V57.4804L33.5456 56.3361L34.0071 55.8008C36.41 53.3322 39.4017 51.5156 42.7003 50.5221C41.0488 49.2654 39.7463 47.607 38.9166 45.7048Z" fill="white"/>
<path d="M74.6124 50.3008C73.0584 48.7538 71.2031 47.5426 69.1616 46.7425C67.12 45.9424 64.9358 45.5704 62.7445 45.6496C62.0724 45.6515 61.4009 45.6885 60.7327 45.7603C59.8875 47.545 58.6206 49.097 57.0413 50.2823C60.5628 51.2566 63.753 53.1707 66.2698 55.8195L66.7312 56.3363L67.7279 57.4806V66.1739H75V50.8176L74.6124 50.3008Z" fill="white"/>
<path d="M37.2555 42.1051H37.8276C37.5618 39.8224 37.9623 37.5116 38.9809 35.4515C39.9994 33.3914 41.5925 31.6702 43.5678 30.4956C42.8518 29.4018 41.8639 28.5126 40.701 27.9152C39.5381 27.3178 38.24 27.0327 36.9338 27.0877C35.6276 27.1428 34.3581 27.5361 33.2496 28.2292C32.141 28.9223 31.2315 29.8914 30.6101 31.0417C29.9886 32.1919 29.6766 33.4838 29.7044 34.7909C29.7323 36.0979 30.0991 37.3754 30.769 38.4981C31.4389 39.6208 32.3889 40.5502 33.5259 41.1955C34.663 41.8407 35.9481 42.1796 37.2555 42.179V42.1051Z" fill="white"/>
<path d="M61.8587 40.7214C61.8811 41.1456 61.8811 41.5707 61.8587 41.9949C62.2129 42.0511 62.5707 42.0819 62.9292 42.0872H63.2799C64.5815 42.0178 65.843 41.6125 66.9415 40.9109C68.04 40.2092 68.9381 39.2351 69.5484 38.0833C70.1587 36.9315 70.4603 35.6414 70.424 34.3384C70.3876 33.0354 70.0145 31.7641 69.341 30.6481C68.6674 29.5322 67.7164 28.6096 66.5805 27.9703C65.4445 27.331 64.1624 26.9967 62.859 27C61.5555 27.0033 60.2751 27.344 59.1424 27.989C58.0097 28.6341 57.0633 29.5614 56.3954 30.6807C58.0659 31.7714 59.4396 33.2597 60.3931 35.0122C61.3466 36.7646 61.8502 38.7263 61.8587 40.7214Z" fill="white"/>
<path d="M49.7508 48.9899C54.3074 48.9899 58.0012 45.2961 58.0012 40.7396C58.0012 36.1831 54.3074 32.4893 49.7508 32.4893C45.1943 32.4893 41.5005 36.1831 41.5005 40.7396C41.5005 45.2961 45.1943 48.9899 49.7508 48.9899Z" fill="white"/>
<path d="M50.1937 53.3828C47.7833 53.2854 45.3781 53.6768 43.1228 54.5332C40.8676 55.3896 38.8089 56.6934 37.0707 58.3662L36.6093 58.883V70.5663C36.6165 70.9469 36.6986 71.3223 36.8509 71.6711C37.0032 72.0199 37.2228 72.3353 37.497 72.5993C37.7712 72.8632 38.0948 73.0706 38.4492 73.2095C38.8036 73.3483 39.1818 73.416 39.5624 73.4087H60.7696C61.1501 73.416 61.5284 73.3483 61.8828 73.2095C62.2372 73.0706 62.5607 72.8632 62.835 72.5993C63.1092 72.3353 63.3288 72.0199 63.4811 71.6711C63.6334 71.3223 63.7155 70.9469 63.7227 70.5663V58.9199L63.2797 58.3662C61.5528 56.6883 59.5013 55.3808 57.251 54.5239C55.0008 53.6669 52.5993 53.2786 50.1937 53.3828Z" fill="white"/>
<defs>
<radialGradient id="paint0_radial_471_1019" cx="0" cy="0" r="1" gradientUnits="userSpaceOnUse" gradientTransform="translate(32.8571 32.1429) rotate(43.7982) scale(72.2418)">
<stop stop-color="#FF3D60" stop-opacity="0.5"/>
<stop offset="1" stop-color="#FF3D60"/>
</radialGradient>
</defs>
</svg>
