<svg width="36" height="42" viewBox="0 0 36 42" fill="none" xmlns="http://www.w3.org/2000/svg">
<path d="M3 42H21C21.7954 41.9992 22.558 41.6829 23.1204 41.1204C23.6829 40.558 23.9992 39.7954 24 39V34.5H21V39H3V3H21V7.5H24V3C23.9992 2.20459 23.6829 1.44199 23.1204 0.879557C22.558 0.31712 21.7954 0.000794215 21 0H3C2.20459 0.000794215 1.44199 0.31712 0.879557 0.879557C0.31712 1.44199 0.000794215 2.20459 0 3V39C0.000794215 39.7954 0.31712 40.558 0.879557 41.1204C1.44199 41.6829 2.20459 41.9992 3 42Z" fill="black"/>
<path d="M24.879 27.879L30.258 22.5H9V19.5H30.258L24.879 14.121L27 12L36 21L27 30L24.879 27.879Z" fill="black"/>
</svg>
