<svg width="38" height="38" viewBox="0 0 38 38" fill="none" xmlns="http://www.w3.org/2000/svg">
<g filter="url(#filter0_d_531_343)">
<rect x="4" y="4" width="30" height="30" rx="15" fill="white"/>
<path d="M20.25 10.25C20.25 9.55965 19.6904 9 19 9C18.3096 9 17.75 9.55965 17.75 10.25C17.75 10.9404 18.3096 11.5 19 11.5C19.6904 11.5 20.25 10.9404 20.25 10.25Z" stroke="black" stroke-width="2" stroke-linecap="round" stroke-linejoin="round"/>
<path d="M20.25 19C20.25 18.3096 19.6904 17.75 19 17.75C18.3096 17.75 17.75 18.3096 17.75 19C17.75 19.6904 18.3096 20.25 19 20.25C19.6904 20.25 20.25 19.6904 20.25 19Z" stroke="black" stroke-width="2" stroke-linecap="round" stroke-linejoin="round"/>
<path d="M20.25 27.75C20.25 27.0596 19.6904 26.5 19 26.5C18.3096 26.5 17.75 27.0596 17.75 27.75C17.75 28.4404 18.3096 29 19 29C19.6904 29 20.25 28.4404 20.25 27.75Z" stroke="black" stroke-width="2" stroke-linecap="round" stroke-linejoin="round"/>
</g>
<defs>
<filter id="filter0_d_531_343" x="0" y="0" width="38" height="38" filterUnits="userSpaceOnUse" color-interpolation-filters="sRGB">
<feFlood flood-opacity="0" result="BackgroundImageFix"/>
<feColorMatrix in="SourceAlpha" type="matrix" values="0 0 0 0 0 0 0 0 0 0 0 0 0 0 0 0 0 0 127 0" result="hardAlpha"/>
<feOffset/>
<feGaussianBlur stdDeviation="2"/>
<feComposite in2="hardAlpha" operator="out"/>
<feColorMatrix type="matrix" values="0 0 0 0 0 0 0 0 0 0 0 0 0 0 0 0 0 0 0.25 0"/>
<feBlend mode="normal" in2="BackgroundImageFix" result="effect1_dropShadow_531_343"/>
<feBlend mode="normal" in="SourceGraphic" in2="effect1_dropShadow_531_343" result="shape"/>
</filter>
</defs>
</svg>
