<svg width="20" height="21" viewBox="0 0 20 21" fill="none" xmlns="http://www.w3.org/2000/svg">
<path d="M6.70768 14.6816C6.00069 14.6824 5.32288 14.9637 4.82295 15.4636C4.32303 15.9635 4.04182 16.6413 4.04102 17.3483C4.04102 18.0556 4.32197 18.7338 4.82206 19.2339C5.32216 19.734 6.00044 20.015 6.70768 20.015C7.41493 20.015 8.0932 19.734 8.5933 19.2339C9.0934 18.7338 9.37435 18.0556 9.37435 17.3483C9.37355 16.6413 9.09235 15.9635 8.59242 15.4636C8.0925 14.9636 7.41468 14.6824 6.70768 14.6816ZM6.70768 18.6816C6.44397 18.6816 6.18619 18.6034 5.96692 18.4569C5.74766 18.3104 5.57676 18.1022 5.47584 17.8586C5.37493 17.6149 5.34852 17.3468 5.39997 17.0882C5.45142 16.8295 5.5784 16.592 5.76487 16.4055C5.95134 16.219 6.18892 16.092 6.44756 16.0406C6.7062 15.9891 6.97429 16.0156 7.21793 16.1165C7.46156 16.2174 7.6698 16.3883 7.81631 16.6075C7.96282 16.8268 8.04102 17.0846 8.04102 17.3483C8.0406 17.7018 7.89999 18.0407 7.65003 18.2907C7.40007 18.5406 7.06118 18.6812 6.70768 18.6816Z" fill="black"/>
<path d="M16.0409 14.6816C15.3339 14.6824 14.6561 14.9637 14.1562 15.4636C13.6563 15.9635 13.3751 16.6413 13.3743 17.3483C13.3743 18.0556 13.6552 18.7338 14.1553 19.2339C14.6554 19.734 15.3337 20.015 16.0409 20.015C16.7482 20.015 17.4265 19.734 17.9266 19.2339C18.4266 18.7338 18.7076 18.0556 18.7076 17.3483C18.7068 16.6413 18.4256 15.9635 17.9257 15.4636C17.4257 14.9636 16.7479 14.6824 16.0409 14.6816ZM16.0409 18.6816C15.7772 18.6816 15.5194 18.6034 15.3002 18.4569C15.0809 18.3104 14.91 18.1022 14.8091 17.8586C14.7082 17.6149 14.6818 17.3468 14.7332 17.0882C14.7847 16.8295 14.9117 16.592 15.0981 16.4055C15.2846 16.219 15.5222 16.092 15.7808 16.0406C16.0395 15.9891 16.3075 16.0156 16.5512 16.1165C16.7948 16.2174 17.0031 16.3883 17.1496 16.6075C17.2961 16.8268 17.3743 17.0846 17.3743 17.3483C17.3738 17.7018 17.2332 18.0407 16.9833 18.2907C16.7333 18.5406 16.3944 18.6812 16.0409 18.6816Z" fill="black"/>
<path d="M6 3.33496V4.66829H18.6667V7.30767L17.1875 12.0016H5.5805L3.91383 0H0V1.33333H2.75283L4.4195 13.335H18.1653L20 7.51275V3.33496H6Z" fill="black"/>
</svg>
