<svg width="20" height="14" viewBox="0 0 20 14" fill="none" xmlns="http://www.w3.org/2000/svg">
<path d="M20 6.875C20 6.875 16.25 0 10 0C3.75 0 0 6.875 0 6.875C0 6.875 3.75 13.75 10 13.75C16.25 13.75 20 6.875 20 6.875ZM1.46625 6.875C2.07064 5.9564 2.7658 5.10086 3.54125 4.32125C5.15 2.71 7.35 1.25 10 1.25C12.65 1.25 14.8488 2.71 16.46 4.32125C17.2354 5.10086 17.9306 5.9564 18.535 6.875C18.4625 6.98375 18.3825 7.10375 18.2913 7.235C17.8725 7.835 17.2537 8.635 16.46 9.42875C14.8488 11.04 12.6488 12.5 10 12.5C7.35 12.5 5.15125 11.04 3.54 9.42875C2.76456 8.64914 2.07065 7.79359 1.46625 6.875Z" fill="black"/>
<path d="M10 3.75C9.1712 3.75 8.37634 4.07924 7.79029 4.66529C7.20424 5.25134 6.875 6.0462 6.875 6.875C6.875 7.7038 7.20424 8.49866 7.79029 9.08471C8.37634 9.67076 9.1712 10 10 10C10.8288 10 11.6237 9.67076 12.2097 9.08471C12.7958 8.49866 13.125 7.7038 13.125 6.875C13.125 6.0462 12.7958 5.25134 12.2097 4.66529C11.6237 4.07924 10.8288 3.75 10 3.75ZM5.625 6.875C5.625 5.71468 6.08594 4.60188 6.90641 3.78141C7.72688 2.96094 8.83968 2.5 10 2.5C11.1603 2.5 12.2731 2.96094 13.0936 3.78141C13.9141 4.60188 14.375 5.71468 14.375 6.875C14.375 8.03532 13.9141 9.14812 13.0936 9.96859C12.2731 10.7891 11.1603 11.25 10 11.25C8.83968 11.25 7.72688 10.7891 6.90641 9.96859C6.08594 9.14812 5.625 8.03532 5.625 6.875Z" fill="black"/>
</svg>
