<svg width="15" height="20" viewBox="0 0 15 20" fill="none" xmlns="http://www.w3.org/2000/svg">
<mask id="path-1-inside-1_531_470" fill="white">
<path d="M1.25 20H0V0H15L11.375 6.42857L15 12.8571H1.25V20ZM1.25 11.4286H12.7063L9.875 6.42857L12.7063 1.42857H1.25V11.4286Z"/>
</mask>
<path d="M1.25 20H0V0H15L11.375 6.42857L15 12.8571H1.25V20ZM1.25 11.4286H12.7063L9.875 6.42857L12.7063 1.42857H1.25V11.4286Z" fill="#B7B7B7"/>
<path d="M1.25 20V22H3.25V20H1.25ZM0 20H-2V22H0V20ZM0 0V-2H-2V0H0ZM15 0L16.7421 0.98236L18.4238 -2H15V0ZM11.375 6.42857L9.63288 5.44621L9.07894 6.42857L9.63288 7.41093L11.375 6.42857ZM15 12.8571V14.8571H18.4238L16.7421 11.8748L15 12.8571ZM1.25 12.8571V10.8571H-0.75V12.8571H1.25ZM1.25 11.4286H-0.75V13.4286H1.25V11.4286ZM12.7063 11.4286V13.4286H16.1371L14.4466 10.4431L12.7063 11.4286ZM9.875 6.42857L8.13464 5.4431L7.57662 6.42857L8.13464 7.41405L9.875 6.42857ZM12.7063 1.42857L14.4466 2.41405L16.1371 -0.571429H12.7063V1.42857ZM1.25 1.42857V-0.571429H-0.75V1.42857H1.25ZM1.25 18H0V22H1.25V18ZM2 20V0H-2V20H2ZM0 2H15V-2H0V2ZM13.2579 -0.98236L9.63288 5.44621L13.1171 7.41093L16.7421 0.98236L13.2579 -0.98236ZM9.63288 7.41093L13.2579 13.8395L16.7421 11.8748L13.1171 5.44621L9.63288 7.41093ZM15 10.8571H1.25V14.8571H15V10.8571ZM-0.75 12.8571V20H3.25V12.8571H-0.75ZM1.25 13.4286H12.7063V9.42857H1.25V13.4286ZM14.4466 10.4431L11.6154 5.4431L8.13464 7.41405L10.9659 12.414L14.4466 10.4431ZM11.6154 7.41405L14.4466 2.41405L10.9659 0.443095L8.13464 5.4431L11.6154 7.41405ZM12.7063 -0.571429H1.25V3.42857H12.7063V-0.571429ZM-0.75 1.42857V11.4286H3.25V1.42857H-0.75Z" fill="#B7B7B7" mask="url(#path-1-inside-1_531_470)"/>
</svg>
