<svg width="32" height="32" viewBox="0 0 32 32" fill="none" xmlns="http://www.w3.org/2000/svg">
<circle cx="16" cy="16" r="14.5" stroke="#003957" stroke-width="3"/>
<path d="M23.7715 15.7708C23.7715 16.1253 23.6321 16.4652 23.3839 16.7158C23.1358 16.9664 22.7993 17.1072 22.4483 17.1072H17.1159V22.494C17.1009 22.8379 16.955 23.1627 16.7088 23.4007C16.4625 23.6387 16.1349 23.7715 15.794 23.7715C15.4532 23.7715 15.1255 23.6387 14.8793 23.4007C14.633 23.1627 14.4872 22.8379 14.4722 22.494V17.1072H9.13586C8.95872 17.1127 8.78227 17.0823 8.61699 17.0177C8.45171 16.9531 8.30097 16.8556 8.17372 16.731C8.04646 16.6064 7.94528 16.4573 7.87618 16.2925C7.80709 16.1276 7.77148 15.9505 7.77148 15.7715C7.77148 15.5925 7.80709 15.4153 7.87618 15.2505C7.94528 15.0857 8.04646 14.9365 8.17372 14.8119C8.30097 14.6874 8.45171 14.5899 8.61699 14.5253C8.78227 14.4606 8.95872 14.4302 9.13586 14.4358H14.4709V9.04895C14.4859 8.70506 14.6317 8.38028 14.878 8.1423C15.1242 7.90432 15.4519 7.77148 15.7927 7.77148C16.1336 7.77148 16.4613 7.90432 16.7075 8.1423C16.9538 8.38028 17.0996 8.70506 17.1146 9.04895V14.4358H22.4496C22.8003 14.4361 23.1365 14.5771 23.3844 14.8277C23.6323 15.0782 23.7715 15.4166 23.7715 15.7708Z" fill="#003957"/>
</svg>
