<svg width="20" height="21" viewBox="0 0 20 21" fill="none" xmlns="http://www.w3.org/2000/svg">
<path d="M18.75 3.75366H1.25C0.911458 3.75366 0.61849 3.6331 0.371094 3.39198C0.123698 3.15086 0 2.85761 0 2.51222C0 2.16683 0.120443 1.87031 0.361328 1.62268C0.602214 1.37504 0.898437 1.25122 1.25 1.25122H7.5C7.5 0.912348 7.62044 0.619094 7.86133 0.371456C8.10221 0.123819 8.39844 0 8.75 0H11.25C11.6016 0 11.8978 0.123819 12.1387 0.371456C12.3796 0.619094 12.5 0.912348 12.5 1.25122H18.75C19.0885 1.25122 19.3815 1.37504 19.6289 1.62268C19.8763 1.87031 20 2.16683 20 2.51222C20 2.85761 19.8763 3.15086 19.6289 3.39198C19.3815 3.6331 19.0885 3.75366 18.75 3.75366ZM18.75 17.5171C18.75 18.2079 18.5059 18.7976 18.0176 19.2864C17.5293 19.7752 16.9401 20.0195 16.25 20.0195H3.75C3.0599 20.0195 2.4707 19.7752 1.98242 19.2864C1.49414 18.7976 1.25 18.2079 1.25 17.5171V5.00488H18.75V17.5171ZM6.25 8.75854C6.25 8.41967 6.1263 8.12642 5.87891 7.87878C5.63151 7.63114 5.33529 7.50732 4.99023 7.50732C4.64518 7.50732 4.35221 7.63114 4.11133 7.87878C3.87044 8.12642 3.75 8.41967 3.75 8.75854V16.2659C3.75 16.6178 3.87044 16.9143 4.11133 17.1554C4.35221 17.3965 4.64518 17.5171 4.99023 17.5171C5.33529 17.5171 5.63151 17.3965 5.87891 17.1554C6.1263 16.9143 6.25 16.6178 6.25 16.2659V8.75854ZM11.25 8.75854C11.25 8.41967 11.1263 8.12642 10.8789 7.87878C10.6315 7.63114 10.3353 7.50732 9.99023 7.50732C9.64518 7.50732 9.35221 7.63114 9.11133 7.87878C8.87044 8.12642 8.75 8.41967 8.75 8.75854V16.2659C8.75 16.6178 8.87044 16.9143 9.11133 17.1554C9.35221 17.3965 9.64518 17.5171 9.99023 17.5171C10.3353 17.5171 10.6315 17.3965 10.8789 17.1554C11.1263 16.9143 11.25 16.6178 11.25 16.2659V8.75854ZM16.25 8.75854C16.25 8.41967 16.1263 8.12642 15.8789 7.87878C15.6315 7.63114 15.3353 7.50732 14.9902 7.50732C14.6452 7.50732 14.3522 7.63114 14.1113 7.87878C13.8704 8.12642 13.75 8.41967 13.75 8.75854V16.2659C13.75 16.6178 13.8704 16.9143 14.1113 17.1554C14.3522 17.3965 14.6452 17.5171 14.9902 17.5171C15.3353 17.5171 15.6315 17.3965 15.8789 17.1554C16.1263 16.9143 16.25 16.6178 16.25 16.2659V8.75854Z" fill="black"/>
</svg>
