<svg width="30" height="27" viewBox="0 0 30 27" fill="none" xmlns="http://www.w3.org/2000/svg">
<path d="M0.9375 16.6895C1.18614 16.6895 1.4246 16.7882 1.60041 16.964C1.77623 17.1399 1.875 17.3783 1.875 17.627V22.3145C1.875 22.8117 2.07254 23.2886 2.42417 23.6403C2.77581 23.9919 3.25272 24.1895 3.75 24.1895H26.25C26.7473 24.1895 27.2242 23.9919 27.5758 23.6403C27.9275 23.2886 28.125 22.8117 28.125 22.3145V17.627C28.125 17.3783 28.2238 17.1399 28.3996 16.964C28.5754 16.7882 28.8139 16.6895 29.0625 16.6895C29.3111 16.6895 29.5496 16.7882 29.7254 16.964C29.9012 17.1399 30 17.3783 30 17.627V22.3145C30 23.309 29.6049 24.2628 28.9016 24.9661C28.1984 25.6694 27.2446 26.0645 26.25 26.0645H3.75C2.75544 26.0645 1.80161 25.6694 1.09835 24.9661C0.395088 24.2628 0 23.309 0 22.3145V17.627C0 17.3783 0.0987721 17.1399 0.274587 16.964C0.450403 16.7882 0.68886 16.6895 0.9375 16.6895Z" fill="#707070"/>
<path d="M14.3365 0.275426C14.4235 0.18812 14.527 0.118852 14.6409 0.0715898C14.7548 0.0243277 14.8769 0 15.0002 0C15.1235 0 15.2456 0.0243277 15.3595 0.0715898C15.4734 0.118852 15.5769 0.18812 15.664 0.275426L21.289 5.90043C21.465 6.07646 21.5639 6.31522 21.5639 6.56418C21.5639 6.81313 21.465 7.05189 21.289 7.22793C21.1129 7.40396 20.8742 7.50286 20.6252 7.50286C20.3763 7.50286 20.1375 7.40396 19.9615 7.22793L15.9377 3.2023V19.6892C15.9377 19.9378 15.8389 20.1763 15.6631 20.3521C15.4873 20.5279 15.2488 20.6267 15.0002 20.6267C14.7516 20.6267 14.5131 20.5279 14.3373 20.3521C14.1615 20.1763 14.0627 19.9378 14.0627 19.6892V3.2023L10.039 7.22793C9.95179 7.31509 9.84831 7.38423 9.73443 7.43141C9.62054 7.47858 9.49848 7.50286 9.37521 7.50286C9.25194 7.50286 9.12988 7.47858 9.01599 7.43141C8.9021 7.38423 8.79862 7.31509 8.71146 7.22793C8.62429 7.14076 8.55515 7.03728 8.50798 6.9234C8.4608 6.80951 8.43652 6.68745 8.43652 6.56418C8.43652 6.44091 8.4608 6.31884 8.50798 6.20496C8.55515 6.09107 8.62429 5.98759 8.71146 5.90043L14.3365 0.275426Z" fill="#707070"/>
</svg>
